<svg width="37" height="36" viewBox="0 0 37 36" fill="none" xmlns="http://www.w3.org/2000/svg">
<path d="M18.5255 11.5781C17.9738 11.5781 17.4346 11.4145 16.9759 11.1081C16.5173 10.8016 16.1598 10.366 15.9487 9.85639C15.7376 9.34675 15.6824 8.78597 15.79 8.24494C15.8976 7.70392 16.1632 7.20695 16.5533 6.8169C16.9433 6.42684 17.4403 6.16121 17.9813 6.05359C18.5224 5.94598 19.0831 6.00121 19.5928 6.21231C20.1024 6.4234 20.538 6.78088 20.8445 7.23954C21.1509 7.6982 21.3145 8.23744 21.3145 8.78906C21.3137 9.52852 21.0196 10.2375 20.4967 10.7603C19.9739 11.2832 19.2649 11.5773 18.5255 11.5781Z" fill="#5A5A5A"/>
<path d="M27.3826 12.112L27.3826 12.1122L27.3956 12.1082L27.4071 12.1046L27.4181 12.1017C27.4184 12.1016 27.4187 12.1015 27.4189 12.1015C27.6754 12.0344 27.8875 12.1171 28.0666 12.3214C28.2599 12.5418 28.3844 12.8818 28.3844 13.2103C28.3844 13.4702 28.277 13.6619 28.0651 13.8395C27.8352 14.0322 27.5049 14.1862 27.115 14.3324L27.114 14.3328C27.1033 14.3369 27.0924 14.3404 27.0813 14.3433L27.0629 14.3482L27.0449 14.3545L22.5984 15.9089L22.5983 15.9088L22.5876 15.9128C22.2715 16.0315 22.0304 16.1581 21.8522 16.2796C21.6898 16.3903 21.5365 16.5258 21.4528 16.6807L21.4462 16.6929C21.4462 16.693 21.4461 16.6931 21.4461 16.6932L21.4429 16.699L21.4428 16.6993C21.3058 16.9582 21.1704 17.5312 21.3779 18.8349L21.6653 21.0686L21.6671 21.0826L21.6697 21.0965L23.2949 29.7989L23.2965 29.8079L23.2985 29.8168C23.3109 29.8717 23.3212 29.927 23.3296 29.9826C23.3675 30.2416 23.2919 30.4867 23.1244 30.6688C22.9587 30.8489 22.6713 31.0001 22.2305 31.0001C21.8734 31.0001 21.6612 30.8841 21.5103 30.7153C21.3423 30.5273 21.2129 30.2303 21.1276 29.8142L21.1274 29.8133L21.1243 29.7961L21.112 29.7298C21.1012 29.6718 21.0853 29.587 21.0649 29.4791C21.024 29.2634 20.965 28.9555 20.8919 28.5861C20.7458 27.8477 20.5435 26.8618 20.3189 25.8746C20.095 24.8903 19.8465 23.893 19.6073 23.137C19.4887 22.7621 19.3664 22.4266 19.2432 22.1774C19.1828 22.0551 19.1104 21.929 19.023 21.8261C18.9536 21.7443 18.7787 21.5616 18.5031 21.5616C18.2493 21.5616 18.0793 21.7141 17.9998 21.8C17.9094 21.8977 17.8367 22.0166 17.7777 22.1294C17.6576 22.3588 17.5422 22.6652 17.4325 23.0054C17.211 23.6922 16.9848 24.6055 16.7778 25.5327C16.4651 26.9331 16.1858 28.4148 16.0301 29.241C15.9801 29.5061 15.9429 29.7037 15.9213 29.8095C15.8361 30.2281 15.7064 30.5266 15.5377 30.7153C15.3868 30.8841 15.1746 31.0001 14.8175 31.0001C14.3779 31.0001 14.0909 30.8496 13.9252 30.6701C13.7592 30.4904 13.6832 30.2494 13.7176 29.9945L13.7272 29.9412L13.7273 29.9412L13.729 29.931C13.7318 29.9136 13.7348 29.8969 13.7382 29.8808L13.7383 29.8809L13.7405 29.8687L15.3438 21.0936L15.3461 21.0807L15.3478 21.0677L15.6357 18.834C15.6654 18.6482 15.7234 18.2796 15.7473 17.8858C15.7701 17.5101 15.7696 17.02 15.6239 16.6455C15.57 16.5058 15.4821 16.3468 15.3124 16.1934C15.1514 16.0478 14.9379 15.9262 14.6593 15.8194L14.6445 15.8137L14.6294 15.809L10.1175 14.3998L9.9142 14.3232C9.52936 14.1783 9.20484 14.0247 8.97971 13.8337C8.77234 13.6578 8.66663 13.4674 8.66663 13.2093C8.66663 12.8807 8.79117 12.541 8.98433 12.3211C9.16351 12.117 9.37596 12.0344 9.63313 12.1021L9.63426 12.1024C9.75102 12.1328 9.86595 12.1699 9.97849 12.2134L9.99996 12.2217L10.0221 12.228C11.3238 12.598 15.4794 13.7148 18.5041 13.7148C21.7559 13.7148 26.3214 12.4239 27.2391 12.1546L27.2391 12.1547L27.2464 12.1524C27.2934 12.1379 27.3386 12.1243 27.3826 12.112Z" fill="#5A5A5A" stroke="#5A5A5A"/>
</svg>
