<svg width="30" height="43" viewBox="0 0 30 43" fill="none" xmlns="http://www.w3.org/2000/svg">
<path d="M16.4063 21.0938C16.4063 21.3719 16.3238 21.6438 16.1693 21.875C16.0147 22.1063 15.7951 22.2865 15.5382 22.393C15.2812 22.4994 14.9984 22.5272 14.7257 22.473C14.4529 22.4187 14.2023 22.2848 14.0056 22.0881C13.809 21.8915 13.675 21.6409 13.6208 21.3681C13.5665 21.0953 13.5944 20.8126 13.7008 20.5556C13.8072 20.2986 13.9875 20.079 14.2187 19.9245C14.45 19.77 14.7219 19.6875 15 19.6875C15.373 19.6875 15.7307 19.8357 15.9944 20.0994C16.2581 20.3631 16.4063 20.7208 16.4063 21.0938ZM15 8.4375C12.4148 8.4375 10.3125 10.3301 10.3125 12.6562V13.125C10.3125 13.3736 10.4113 13.6121 10.5871 13.7879C10.7629 13.9637 11.0014 14.0625 11.25 14.0625C11.4986 14.0625 11.7371 13.9637 11.9129 13.7879C12.0887 13.6121 12.1875 13.3736 12.1875 13.125V12.6562C12.1875 11.3672 13.4496 10.3125 15 10.3125C16.5504 10.3125 17.8125 11.3672 17.8125 12.6562C17.8125 13.9453 16.5504 15 15 15C14.7514 15 14.5129 15.0988 14.3371 15.2746C14.1613 15.4504 14.0625 15.6889 14.0625 15.9375V16.875C14.0625 17.1236 14.1613 17.3621 14.3371 17.5379C14.5129 17.7137 14.7514 17.8125 15 17.8125C15.2486 17.8125 15.4871 17.7137 15.6629 17.5379C15.8387 17.3621 15.9375 17.1236 15.9375 16.875V16.7906C18.075 16.398 19.6875 14.693 19.6875 12.6562C19.6875 10.3301 17.5852 8.4375 15 8.4375ZM27.1875 15C27.1875 17.4105 26.4727 19.7668 25.1335 21.771C23.7944 23.7752 21.8909 25.3373 19.664 26.2598C17.437 27.1822 14.9865 27.4236 12.6223 26.9533C10.2582 26.4831 8.08659 25.3223 6.38214 23.6179C4.67769 21.9134 3.51694 19.7418 3.04668 17.3777C2.57643 15.0135 2.81778 12.563 3.74022 10.336C4.66267 8.10907 6.22477 6.20564 8.22899 4.86646C10.2332 3.52728 12.5895 2.8125 15 2.8125C18.2313 2.81591 21.3292 4.10104 23.6141 6.3859C25.899 8.67076 27.1841 11.7687 27.1875 15ZM25.3125 15C25.3125 12.9604 24.7077 10.9666 23.5745 9.27068C22.4414 7.5748 20.8308 6.25302 18.9464 5.47249C17.0621 4.69196 14.9886 4.48774 12.9881 4.88565C10.9877 5.28356 9.1502 6.26573 7.70797 7.70796C6.26574 9.15019 5.28357 10.9877 4.88566 12.9881C4.48775 14.9886 4.69197 17.0621 5.4725 18.9464C6.25303 20.8308 7.57481 22.4414 9.27069 23.5745C10.9666 24.7077 12.9604 25.3125 15 25.3125C17.7341 25.3094 20.3553 24.2219 22.2886 22.2886C24.2219 20.3553 25.3094 17.7341 25.3125 15Z" fill="#DB471B"/>
<path d="M4.89 36.9084H1.85L1.29 38.4584H0.33L2.85 31.5284H3.9L6.41 38.4584H5.45L4.89 36.9084ZM4.63 36.1684L3.37 32.6484L2.11 36.1684H4.63ZM7.99828 32.0884C7.82495 32.0884 7.67828 32.0284 7.55828 31.9084C7.44495 31.7884 7.38828 31.6417 7.38828 31.4684C7.38828 31.295 7.44495 31.1484 7.55828 31.0284C7.67828 30.9084 7.82495 30.8484 7.99828 30.8484C8.17161 30.8484 8.31495 30.9084 8.42828 31.0284C8.54828 31.1484 8.60828 31.295 8.60828 31.4684C8.60828 31.6417 8.54828 31.7884 8.42828 31.9084C8.31495 32.0284 8.17161 32.0884 7.99828 32.0884ZM8.44828 39.6484C8.44828 40.135 8.32495 40.4917 8.07828 40.7184C7.83161 40.945 7.47161 41.0584 6.99828 41.0584H6.46828V40.2884H6.84828C7.10161 40.2884 7.27828 40.2384 7.37828 40.1384C7.48495 40.0384 7.53828 39.8684 7.53828 39.6284V32.9784H8.44828V39.6484ZM14.8488 32.9784V38.4584H13.9388V37.6484C13.7654 37.9284 13.5221 38.1484 13.2088 38.3084C12.9021 38.4617 12.5621 38.5384 12.1888 38.5384C11.7621 38.5384 11.3788 38.4517 11.0388 38.2784C10.6988 38.0984 10.4288 37.8317 10.2288 37.4784C10.0354 37.125 9.93875 36.695 9.93875 36.1884V32.9784H10.8388V36.0684C10.8388 36.6084 10.9754 37.025 11.2488 37.3184C11.5221 37.605 11.8954 37.7484 12.3688 37.7484C12.8554 37.7484 13.2388 37.5984 13.5188 37.2984C13.7988 36.9984 13.9388 36.5617 13.9388 35.9884V32.9784H14.8488ZM16.0452 35.6984C16.0452 35.1384 16.1586 34.6484 16.3852 34.2284C16.6119 33.8017 16.9219 33.4717 17.3152 33.2384C17.7152 33.005 18.1619 32.8884 18.6552 32.8884C19.0819 32.8884 19.4786 32.9884 19.8452 33.1884C20.2119 33.3817 20.4919 33.6384 20.6852 33.9584V31.0584H21.6052V38.4584H20.6852V37.4284C20.5052 37.755 20.2386 38.025 19.8852 38.2384C19.5319 38.445 19.1186 38.5484 18.6452 38.5484C18.1586 38.5484 17.7152 38.4284 17.3152 38.1884C16.9219 37.9484 16.6119 37.6117 16.3852 37.1784C16.1586 36.745 16.0452 36.2517 16.0452 35.6984ZM20.6852 35.7084C20.6852 35.295 20.6019 34.935 20.4352 34.6284C20.2686 34.3217 20.0419 34.0884 19.7552 33.9284C19.4752 33.7617 19.1652 33.6784 18.8252 33.6784C18.4852 33.6784 18.1752 33.7584 17.8952 33.9184C17.6152 34.0784 17.3919 34.3117 17.2252 34.6184C17.0586 34.925 16.9752 35.285 16.9752 35.6984C16.9752 36.1184 17.0586 36.485 17.2252 36.7984C17.3919 37.105 17.6152 37.3417 17.8952 37.5084C18.1752 37.6684 18.4852 37.7484 18.8252 37.7484C19.1652 37.7484 19.4752 37.6684 19.7552 37.5084C20.0419 37.3417 20.2686 37.105 20.4352 36.7984C20.6019 36.485 20.6852 36.1217 20.6852 35.7084ZM22.803 35.6984C22.803 35.1384 22.9164 34.6484 23.143 34.2284C23.3697 33.8017 23.6797 33.4717 24.073 33.2384C24.473 33.005 24.9164 32.8884 25.403 32.8884C25.883 32.8884 26.2997 32.9917 26.653 33.1984C27.0064 33.405 27.2697 33.665 27.443 33.9784V32.9784H28.363V38.4584H27.443V37.4384C27.263 37.7584 26.993 38.025 26.633 38.2384C26.2797 38.445 25.8664 38.5484 25.393 38.5484C24.9064 38.5484 24.4664 38.4284 24.073 38.1884C23.6797 37.9484 23.3697 37.6117 23.143 37.1784C22.9164 36.745 22.803 36.2517 22.803 35.6984ZM27.443 35.7084C27.443 35.295 27.3597 34.935 27.193 34.6284C27.0264 34.3217 26.7997 34.0884 26.513 33.9284C26.233 33.7617 25.923 33.6784 25.583 33.6784C25.243 33.6784 24.933 33.7584 24.653 33.9184C24.373 34.0784 24.1497 34.3117 23.983 34.6184C23.8164 34.925 23.733 35.285 23.733 35.6984C23.733 36.1184 23.8164 36.485 23.983 36.7984C24.1497 37.105 24.373 37.3417 24.653 37.5084C24.933 37.6684 25.243 37.7484 25.583 37.7484C25.923 37.7484 26.233 37.6684 26.513 37.5084C26.7997 37.3417 27.0264 37.105 27.193 36.7984C27.3597 36.485 27.443 36.1217 27.443 35.7084Z" fill="#DB471B"/>
</svg>
