<svg width="30" height="30" viewBox="0 0 30 30" fill="none" xmlns="http://www.w3.org/2000/svg">
<path d="M24.3749 15C24.3749 14.7125 24.3624 14.4375 24.3374 14.15L26.6624 12.3875C27.1624 12.0125 27.2999 11.3125 26.9874 10.7625L24.6499 6.725C24.5001 6.46023 24.2576 6.26018 23.9692 6.16327C23.6808 6.06637 23.3668 6.07945 23.0874 6.2L20.3999 7.3375C19.9374 7.0125 19.4499 6.725 18.9374 6.4875L18.5749 3.6C18.4999 2.975 17.9624 2.5 17.3374 2.5H12.6749C12.0374 2.5 11.4999 2.975 11.4249 3.6L11.0624 6.4875C10.5499 6.725 10.0624 7.0125 9.59995 7.3375L6.91245 6.2C6.33745 5.95 5.66245 6.175 5.34995 6.725L3.01245 10.775C2.69995 11.325 2.83745 12.0125 3.33745 12.4L5.66245 14.1625C5.61063 14.7238 5.61063 15.2887 5.66245 15.85L3.33745 17.6125C2.83745 17.9875 2.69995 18.6875 3.01245 19.2375L5.34995 23.275C5.66245 23.825 6.33745 24.05 6.91245 23.8L9.59995 22.6625C10.0624 22.9875 10.5499 23.275 11.0624 23.5125L11.4249 26.4C11.4999 27.025 12.0374 27.5 12.6624 27.5H17.3249C17.9499 27.5 18.4874 27.025 18.5624 26.4L18.9249 23.5125C19.4374 23.275 19.9249 22.9875 20.3874 22.6625L23.0749 23.8C23.6499 24.05 24.3249 23.825 24.6374 23.275L26.9749 19.2375C27.2874 18.6875 27.1499 18 26.6499 17.6125L24.3249 15.85C24.3624 15.5625 24.3749 15.2875 24.3749 15ZM15.0499 19.375C12.6374 19.375 10.6749 17.4125 10.6749 15C10.6749 12.5875 12.6374 10.625 15.0499 10.625C17.4624 10.625 19.4249 12.5875 19.4249 15C19.4249 17.4125 17.4624 19.375 15.0499 19.375Z" fill="#DB471B"/>
</svg>
