<svg width="224" height="192" viewBox="0 0 224 192" fill="none" xmlns="http://www.w3.org/2000/svg">
<path d="M162 0C141.35 0 123.27 8.88 112 23.89C100.73 8.88 82.65 0 62 0C45.5623 0.0185274 29.8031 6.5566 18.1798 18.1798C6.5566 29.8031 0.0185274 45.5623 0 62C0 132 103.79 188.66 108.21 191C109.375 191.627 110.677 191.955 112 191.955C113.323 191.955 114.625 191.627 115.79 191C120.21 188.66 224 132 224 62C223.981 45.5623 217.443 29.8031 205.82 18.1798C194.197 6.5566 178.438 0.0185274 162 0ZM112 174.8C93.74 164.16 16 115.69 16 62C16.0159 49.8049 20.8674 38.1139 29.4906 29.4906C38.1139 20.8674 49.8049 16.0159 62 16C81.45 16 97.78 26.36 104.6 43C105.203 44.4673 106.228 45.7223 107.546 46.6055C108.863 47.4887 110.414 47.9603 112 47.9603C113.586 47.9603 115.137 47.4887 116.454 46.6055C117.772 45.7223 118.797 44.4673 119.4 43C126.22 26.33 142.55 16 162 16C174.195 16.0159 185.886 20.8674 194.509 29.4906C203.133 38.1139 207.984 49.8049 208 62C208 115.61 130.24 164.15 112 174.8Z" fill="#5A5A5A"/>
</svg>
