<svg width="28" height="26" viewBox="0 0 28 26" fill="none" xmlns="http://www.w3.org/2000/svg">
<g clip-path="url(#clip0_451_534)">
<path d="M17.25 25.0125V13.3688L27.1429 3.45C27.2899 3.30297 27.4061 3.12804 27.4846 2.9355C27.5631 2.74296 27.6023 2.53667 27.6 2.32875V0.8625C27.6 0.633751 27.5091 0.414371 27.3474 0.252621C27.1856 0.0908704 26.9662 0 26.7375 0H0.8625C0.633751 0 0.41437 0.0908704 0.25262 0.252621C0.0908702 0.414371 0 0.633751 0 0.8625V2.30288C0.000161272 2.50659 0.0406358 2.70825 0.119091 2.89625C0.197547 3.08424 0.312432 3.25486 0.457125 3.39825L10.35 13.4378V22.2353L17.25 25.0125Z" fill="#DB471B"/>
<path d="M27.1515 0H0.414027C0.301155 0.00870775 0.195751 0.0597777 0.118965 0.142963C0.0421791 0.226148 -0.000308742 0.335293 2.66493e-05 0.4485V1.932C-0.00100978 2.08405 0.0281947 2.2348 0.0859416 2.37546C0.143689 2.51613 0.228826 2.64391 0.336402 2.75138L10.6864 13.1014V21.7264L16.9395 24.84V13.0841L27.2895 2.73413C27.4875 2.52054 27.5983 2.2405 27.6 1.94925V0.4485C27.6 0.32955 27.5528 0.215473 27.4687 0.131363C27.3846 0.0472527 27.2705 0 27.1515 0Z" fill="#DB471B"/>
</g>
<defs>
<clipPath id="clip0_451_534">
<rect width="27.6" height="25.0125" fill="white"/>
</clipPath>
</defs>
</svg>
