<svg width="36" height="36" viewBox="0 0 36 36" fill="none" xmlns="http://www.w3.org/2000/svg">
<path d="M6.64032 8.89388L8.46246 10.716C10.157 8.49758 12.572 6.9393 15.2916 6.30944C18.0112 5.67959 20.8654 6.01758 23.3627 7.26521C25.86 8.51285 27.8442 10.5921 28.9737 13.145C30.1032 15.6979 30.3074 18.5647 29.5511 21.2519C28.7948 23.9391 27.1254 26.2786 24.8301 27.8676C22.5349 29.4566 19.7575 30.1957 16.976 29.9577C14.1946 29.7196 11.5832 28.5194 9.59126 26.5635C7.59937 24.6076 6.35166 22.0185 6.06293 19.2419C6.0323 18.945 6.12088 18.648 6.30918 18.4164C6.49747 18.1848 6.77006 18.0375 7.06698 18.0069C7.3639 17.9762 7.66083 18.0648 7.89244 18.2531C8.12405 18.4414 8.27137 18.714 8.302 19.0109C8.53844 21.2791 9.5626 23.3926 11.1963 24.9836C12.83 26.5747 14.9698 27.5427 17.2434 27.7191C19.517 27.8955 21.7805 27.2693 23.6401 25.9493C25.4997 24.6293 26.8376 22.6991 27.4212 20.4946C28.0047 18.29 27.7968 15.9507 26.8338 13.8836C25.8708 11.8164 24.2135 10.1524 22.1503 9.18089C20.0872 8.20941 17.7487 7.99201 15.5418 8.56651C13.3349 9.14101 11.3992 10.4711 10.0717 12.3252L12.1083 14.3618C12.1608 14.4143 12.1966 14.4811 12.2112 14.5539C12.2257 14.6268 12.2183 14.7023 12.1898 14.7708C12.1614 14.8394 12.1132 14.898 12.0515 14.9392C11.9897 14.9804 11.9171 15.0023 11.8428 15.0022H6.37487C6.27543 15.0022 6.18007 14.9627 6.10975 14.8924C6.03944 14.8221 5.99994 14.7267 5.99994 14.6273V9.15933C5.99981 9.08508 6.02172 9.01246 6.06291 8.95068C6.1041 8.8889 6.16271 8.84074 6.2313 8.81231C6.29989 8.78388 6.37538 8.77645 6.4482 8.79098C6.52101 8.8055 6.58788 8.84131 6.64032 8.89388ZM17.6227 12.0028C17.921 12.0028 18.2071 12.1213 18.418 12.3322C18.629 12.5432 18.7475 12.8293 18.7475 13.1276V17.6147L21.7889 18.8325C22.0569 18.9493 22.2689 19.1659 22.3799 19.4364C22.491 19.7069 22.4923 20.0099 22.3837 20.2814C22.2751 20.5529 22.065 20.7713 21.7981 20.8906C21.5311 21.0098 21.2282 21.0204 20.9536 20.9201L17.2043 19.4203C16.9959 19.3366 16.8173 19.1925 16.6914 19.0065C16.5656 18.8205 16.4982 18.6011 16.4979 18.3765V13.1276C16.4979 12.8293 16.6164 12.5432 16.8274 12.3322C17.0383 12.1213 17.3244 12.0028 17.6227 12.0028Z" fill="#5A5A5A"/>
</svg>
