<svg width="37" height="36" viewBox="0 0 37 36" fill="none" xmlns="http://www.w3.org/2000/svg">
<path d="M15.3333 20.2173H14.5507V20.9999V28.4999C14.5507 28.8927 14.2261 29.2173 13.8333 29.2173H9.33334C8.94056 29.2173 8.61595 28.8927 8.61595 28.4999V17.9999V17.2173H7.83334H5.37773L17.8502 5.98314C17.8505 5.98288 17.8508 5.98263 17.851 5.98237C18.1237 5.73922 18.5431 5.73924 18.8157 5.98242C18.816 5.98266 18.8162 5.9829 18.8165 5.98314L31.2889 17.2173H28.8333H28.0507V17.9999V28.4999C28.0507 28.8927 27.7261 29.2173 27.3333 29.2173H22.8333C22.4406 29.2173 22.1159 28.8927 22.1159 28.4999V20.9999V20.2173H21.3333H15.3333Z" fill="#DB471B" stroke="#DB471B" stroke-width="1.56522"/>
</svg>
