<svg width="15" height="20" viewBox="0 0 15 20" fill="none" xmlns="http://www.w3.org/2000/svg">
<path d="M7.50001 12.4167C9.09084 12.4167 10.375 11.1325 10.375 9.54166V3.79166C10.375 2.20082 9.09084 0.916656 7.50001 0.916656C5.90917 0.916656 4.62501 2.20082 4.62501 3.79166V9.54166C4.62501 11.1325 5.90917 12.4167 7.50001 12.4167ZM13.1638 9.54166C12.6942 9.54166 12.3013 9.88666 12.2246 10.3562C11.8317 12.6083 9.86709 14.3333 7.50001 14.3333C5.13292 14.3333 3.16834 12.6083 2.77542 10.3562C2.74163 10.1308 2.62844 9.92489 2.45625 9.77554C2.28406 9.62619 2.06419 9.54325 1.83626 9.54166C1.25167 9.54166 0.791674 10.0592 0.877924 10.6342C1.34751 13.5092 3.64751 15.7612 6.54167 16.1733V18.1667C6.54167 18.6937 6.97292 19.125 7.50001 19.125C8.02709 19.125 8.45834 18.6937 8.45834 18.1667V16.1733C9.86856 15.9719 11.1779 15.3263 12.1963 14.3302C13.2148 13.3342 13.8893 12.0395 14.1221 10.6342C14.2179 10.0592 13.7483 9.54166 13.1638 9.54166Z" fill="white"/>
</svg>
